<svg width="188" height="161" viewBox="0 0 188 161" fill="none" xmlns="http://www.w3.org/2000/svg">
<g filter="url(#filter0_d_90_2191)">
<path d="M14.4275 118.521H20.7023V122.073H14.4275V128.315H10.8751V122.073H4.60025V118.521H10.8751V112.213H14.4275V118.521ZM40.7561 116.861C42.1948 116.861 43.4785 117.137 44.6073 117.691C45.7361 118.244 46.6214 119.052 47.2633 120.114C47.9273 121.177 48.2593 122.494 48.2593 124.065C48.2593 125.769 47.9052 127.241 47.1969 128.481C46.4886 129.72 45.4262 130.672 44.0097 131.336C42.6153 132 40.8778 132.332 38.7973 132.332C37.5578 132.332 36.3848 132.221 35.2781 132C34.1936 131.779 33.2418 131.458 32.4229 131.037V126.721C33.2418 127.142 34.2268 127.507 35.3777 127.817C36.5286 128.105 37.6132 128.248 38.6313 128.248C39.6273 128.248 40.4573 128.116 41.1213 127.85C41.8074 127.584 42.3276 127.175 42.6817 126.622C43.0358 126.068 43.2129 125.36 43.2129 124.497C43.2129 123.324 42.8256 122.438 42.0509 121.841C41.2762 121.221 40.081 120.911 38.4653 120.911C37.8456 120.911 37.2037 120.978 36.5397 121.11C35.8757 121.221 35.3224 121.332 34.8797 121.442L32.8877 120.38L33.7841 108.295H46.6325V112.545H38.1665L37.7349 117.193C38.1112 117.126 38.5096 117.06 38.9301 116.994C39.3728 116.905 39.9814 116.861 40.7561 116.861ZM67.5573 120.148C67.5573 122.051 67.4024 123.755 67.0925 125.26C66.8048 126.765 66.3289 128.049 65.6649 129.112C65.023 130.152 64.1709 130.949 63.1085 131.502C62.0682 132.055 60.7845 132.332 59.2573 132.332C57.3538 132.332 55.7934 131.845 54.5761 130.871C53.3588 129.897 52.4513 128.503 51.8537 126.688C51.2782 124.873 50.9905 122.693 50.9905 120.148C50.9905 117.58 51.2561 115.389 51.7873 113.574C52.3185 111.759 53.1928 110.365 54.4101 109.391C55.6274 108.417 57.2432 107.93 59.2573 107.93C61.1608 107.93 62.7212 108.417 63.9385 109.391C65.1558 110.343 66.0633 111.737 66.6609 113.574C67.2585 115.389 67.5573 117.58 67.5573 120.148ZM55.9705 120.148C55.9705 121.94 56.0701 123.445 56.2693 124.663C56.4685 125.858 56.8005 126.765 57.2653 127.385C57.7522 127.983 58.4162 128.282 59.2573 128.282C60.0984 128.282 60.7513 127.983 61.2161 127.385C61.703 126.788 62.0461 125.891 62.2453 124.696C62.4666 123.479 62.5773 121.963 62.5773 120.148C62.5773 118.333 62.4666 116.828 62.2453 115.632C62.0461 114.415 61.703 113.508 61.2161 112.91C60.7513 112.29 60.0984 111.98 59.2573 111.98C58.4162 111.98 57.7522 112.29 57.2653 112.91C56.8005 113.508 56.4685 114.415 56.2693 115.632C56.0701 116.828 55.9705 118.333 55.9705 120.148ZM87.9763 108.295C91.0307 108.295 93.2551 108.959 94.6495 110.287C96.0661 111.593 96.7743 113.397 96.7743 115.699C96.7743 116.739 96.6194 117.735 96.3095 118.687C95.9997 119.616 95.4795 120.457 94.7491 121.21C94.0409 121.94 93.1002 122.516 91.9271 122.936C90.7541 123.357 89.3043 123.567 87.5779 123.567H85.4199V132H80.4067V108.295H87.9763ZM87.7107 112.412H85.4199V119.45H87.0799C88.0317 119.45 88.8506 119.329 89.5367 119.085C90.2229 118.842 90.7541 118.454 91.1303 117.923C91.5066 117.392 91.6947 116.706 91.6947 115.865C91.6947 114.692 91.3738 113.829 90.7319 113.275C90.0901 112.7 89.083 112.412 87.7107 112.412ZM122.768 120.114C122.768 121.951 122.535 123.623 122.07 125.128C121.628 126.611 120.942 127.894 120.012 128.979C119.105 130.063 117.931 130.893 116.493 131.469C115.076 132.044 113.405 132.332 111.48 132.332C109.554 132.332 107.872 132.044 106.433 131.469C105.017 130.871 103.844 130.041 102.914 128.979C102.007 127.894 101.32 126.599 100.856 125.094C100.413 123.589 100.192 121.918 100.192 120.081C100.192 117.624 100.59 115.489 101.387 113.674C102.206 111.859 103.445 110.453 105.105 109.457C106.787 108.439 108.923 107.93 111.513 107.93C114.08 107.93 116.194 108.439 117.854 109.457C119.514 110.453 120.742 111.87 121.539 113.707C122.358 115.522 122.768 117.658 122.768 120.114ZM105.47 120.114C105.47 121.774 105.681 123.202 106.101 124.397C106.522 125.592 107.175 126.511 108.06 127.153C108.945 127.795 110.085 128.116 111.48 128.116C112.918 128.116 114.069 127.795 114.932 127.153C115.818 126.511 116.46 125.592 116.858 124.397C117.279 123.202 117.489 121.774 117.489 120.114C117.489 117.613 117.024 115.655 116.094 114.238C115.165 112.821 113.638 112.113 111.513 112.113C110.096 112.113 108.945 112.434 108.06 113.076C107.175 113.718 106.522 114.636 106.101 115.832C105.681 117.027 105.47 118.454 105.47 120.114ZM136.542 132H125.752V129.145L128.641 127.817V112.478L125.752 111.15V108.295H136.542V111.15L133.654 112.478V127.817L136.542 129.145V132ZM161.597 132H155.223L144.898 114.072H144.765C144.787 114.625 144.809 115.19 144.831 115.765C144.853 116.319 144.876 116.883 144.898 117.458C144.942 118.012 144.975 118.576 144.997 119.152C145.019 119.705 145.042 120.269 145.064 120.845V132H140.582V108.295H146.923L157.215 126.057H157.315C157.292 125.504 157.27 124.962 157.248 124.43C157.226 123.877 157.204 123.335 157.182 122.804C157.182 122.25 157.171 121.708 157.149 121.177C157.126 120.623 157.104 120.07 157.082 119.517V108.295H161.597V132ZM176.719 132H171.706V112.478H165.265V108.295H183.16V112.478H176.719V132Z" fill="black"/>
</g>
<g filter="url(#filter1_d_90_2191)">
<path d="M28.031 69.6693H33.3056V72.6555H28.031V77.9022H25.0448V72.6555H19.7702V69.6693H25.0448V64.3667H28.031V69.6693ZM56.0517 65.5389C56.0517 66.4505 55.8563 67.2413 55.4656 67.9111C55.0935 68.5809 54.5818 69.1297 53.9306 69.5576C53.2981 69.9856 52.5725 70.3019 51.7538 70.5065V70.5902C53.3539 70.7763 54.5632 71.26 55.3819 72.0415C56.2191 72.8229 56.6377 73.8741 56.6377 75.1951C56.6377 76.3486 56.3494 77.3905 55.7726 78.3208C55.2144 79.2325 54.34 79.9581 53.1492 80.4977C51.9771 81.0186 50.4607 81.2791 48.6002 81.2791C47.5025 81.2791 46.4792 81.1861 45.5303 81C44.5814 80.8139 43.6883 80.5442 42.8511 80.1907V76.6184C43.707 77.0463 44.6 77.3719 45.5303 77.5952C46.4792 77.8185 47.3536 77.9301 48.1537 77.9301C49.6607 77.9301 50.7119 77.6696 51.3073 77.1487C51.9213 76.6277 52.2282 75.8928 52.2282 74.9439C52.2282 74.3858 52.0887 73.9206 51.8096 73.5485C51.5305 73.1578 51.0375 72.8694 50.3305 72.6834C49.6421 72.4787 48.6746 72.3764 47.428 72.3764H45.921V69.139H47.4559C48.6839 69.139 49.6142 69.0274 50.2468 68.8041C50.898 68.5623 51.3352 68.246 51.5585 67.8552C51.8003 67.4459 51.9213 66.9808 51.9213 66.4598C51.9213 65.7528 51.698 65.204 51.2515 64.8133C50.8235 64.4039 50.0979 64.1993 49.0746 64.1993C48.442 64.1993 47.8653 64.283 47.3443 64.4504C46.8234 64.5993 46.3489 64.7853 45.921 65.0086C45.5117 65.2319 45.1489 65.4458 44.8326 65.6505L42.879 62.748C43.4 62.3759 43.9767 62.041 44.6093 61.7434C45.2605 61.4457 45.9768 61.2131 46.7582 61.0456C47.5397 60.8782 48.4141 60.7945 49.3816 60.7945C51.4282 60.7945 53.0469 61.2131 54.2376 62.0503C55.447 62.869 56.0517 64.0318 56.0517 65.5389ZM72.6924 71.0368C72.6924 72.6368 72.5621 74.0695 72.3016 75.3346C72.0598 76.5998 71.6598 77.6789 71.1016 78.572C70.562 79.4464 69.8457 80.1162 68.9527 80.5814C68.0782 81.0465 66.9991 81.2791 65.7153 81.2791C64.1152 81.2791 62.8036 80.8698 61.7803 80.0511C60.757 79.2325 59.9941 78.0603 59.4918 76.5347C59.008 75.009 58.7662 73.1764 58.7662 71.0368C58.7662 68.8785 58.9894 67.0366 59.436 65.511C59.8825 63.9853 60.6174 62.8132 61.6407 61.9945C62.664 61.1759 64.0222 60.7666 65.7153 60.7666C67.3154 60.7666 68.6271 61.1759 69.6504 61.9945C70.6737 62.7946 71.4365 63.9667 71.9388 65.511C72.4412 67.0366 72.6924 68.8785 72.6924 71.0368ZM62.9524 71.0368C62.9524 72.5438 63.0361 73.809 63.2036 74.8323C63.371 75.837 63.6501 76.5998 64.0408 77.1208C64.4501 77.6231 65.0083 77.8743 65.7153 77.8743C66.4223 77.8743 66.9712 77.6231 67.3619 77.1208C67.7712 76.6184 68.0596 75.8649 68.2271 74.8602C68.4131 73.8369 68.5061 72.5624 68.5061 71.0368C68.5061 69.5111 68.4131 68.246 68.2271 67.2413C68.0596 66.218 67.7712 65.4551 67.3619 64.9528C66.9712 64.4318 66.4223 64.1714 65.7153 64.1714C65.0083 64.1714 64.4501 64.4318 64.0408 64.9528C63.6501 65.4551 63.371 66.218 63.2036 67.2413C63.0361 68.246 62.9524 69.5111 62.9524 71.0368ZM89.8568 61.0736C92.4243 61.0736 94.2942 61.6317 95.4663 62.748C96.6571 63.8458 97.2524 65.3621 97.2524 67.2971C97.2524 68.1715 97.1222 69.0088 96.8617 69.8088C96.6012 70.5902 96.164 71.2973 95.55 71.9298C94.9547 72.5438 94.1639 73.0276 93.1778 73.3811C92.1918 73.7346 90.9731 73.9113 89.5219 73.9113H87.7078V81H83.4937V61.0736H89.8568ZM89.6335 64.5342H87.7078V70.4507H89.1032C89.9033 70.4507 90.5917 70.3484 91.1685 70.1437C91.7452 69.9391 92.1918 69.6135 92.508 69.1669C92.8243 68.7204 92.9825 68.1436 92.9825 67.4366C92.9825 66.4505 92.7127 65.7249 92.1731 65.2598C91.6336 64.776 90.787 64.5342 89.6335 64.5342ZM119.103 71.0089C119.103 72.5531 118.907 73.9578 118.517 75.223C118.144 76.4696 117.568 77.5487 116.786 78.4604C116.023 79.372 115.037 80.0697 113.828 80.5535C112.637 81.0372 111.232 81.2791 109.614 81.2791C107.995 81.2791 106.581 81.0372 105.372 80.5535C104.181 80.0511 103.195 79.3534 102.413 78.4604C101.651 77.5487 101.074 76.4603 100.683 75.1951C100.311 73.9299 100.125 72.5252 100.125 70.981C100.125 68.9158 100.46 67.1203 101.13 65.5947C101.818 64.069 102.86 62.8876 104.255 62.0503C105.669 61.1945 107.465 60.7666 109.642 60.7666C111.8 60.7666 113.577 61.1945 114.972 62.0503C116.368 62.8876 117.4 64.0783 118.07 65.6226C118.758 67.1482 119.103 68.9437 119.103 71.0089ZM104.562 71.0089C104.562 72.4043 104.739 73.6043 105.093 74.609C105.446 75.6137 105.995 76.3858 106.739 76.9254C107.483 77.465 108.442 77.7347 109.614 77.7347C110.823 77.7347 111.791 77.465 112.516 76.9254C113.26 76.3858 113.8 75.6137 114.135 74.609C114.488 73.6043 114.665 72.4043 114.665 71.0089C114.665 68.9065 114.274 67.2599 113.493 66.0691C112.712 64.8784 111.428 64.283 109.642 64.283C108.451 64.283 107.483 64.5528 106.739 65.0923C105.995 65.6319 105.446 66.404 105.093 67.4087C104.739 68.4134 104.562 69.6135 104.562 71.0089ZM130.682 81H121.611V78.5999L124.039 77.4836V64.59L121.611 63.4737V61.0736H130.682V63.4737L128.254 64.59V77.4836L130.682 78.5999V81ZM151.743 81H146.385L137.705 65.9296H137.594C137.612 66.3947 137.631 66.8692 137.65 67.3529C137.668 67.818 137.687 68.2925 137.705 68.7762C137.743 69.2414 137.77 69.7158 137.789 70.1995C137.808 70.6647 137.826 71.1391 137.845 71.6228V81H134.077V61.0736H139.408L148.059 76.0044H148.143C148.124 75.5393 148.106 75.0835 148.087 74.6369C148.069 74.1718 148.05 73.716 148.031 73.2694C148.031 72.8043 148.022 72.3485 148.003 71.9019C147.985 71.4368 147.966 70.9717 147.948 70.5065V61.0736H151.743V81ZM164.455 81H160.241V64.59H154.826V61.0736H169.869V64.59H164.455V81Z" fill="black"/>
</g>
<g filter="url(#filter2_d_90_2191)">
<path d="M42.9397 27.8698H47.19V30.276H42.9397V34.5038H40.5335V30.276H36.2832V27.8698H40.5335V23.597H42.9397V27.8698ZM63.3147 37H59.919V27.7124C59.919 27.4575 59.919 27.1427 59.919 26.7679C59.934 26.393 59.949 26.0033 59.964 25.5985C59.979 25.1937 59.994 24.8339 60.009 24.519C59.934 24.609 59.7691 24.7739 59.5142 25.0138C59.2744 25.2387 59.0495 25.441 58.8396 25.621L56.9955 27.1052L55.3539 25.0587L60.5262 20.9434H63.3147V37ZM78.9276 28.9717C78.9276 30.261 78.8226 31.4154 78.6127 32.4349C78.4178 33.4544 78.0955 34.3239 77.6457 35.0435C77.2109 35.7482 76.6338 36.2879 75.9141 36.6627C75.2095 37.0375 74.34 37.2249 73.3055 37.2249C72.0162 37.2249 70.9592 36.8951 70.1346 36.2354C69.3101 35.5757 68.6954 34.6312 68.2906 33.4019C67.9008 32.1725 67.7059 30.6958 67.7059 28.9717C67.7059 27.2326 67.8858 25.7484 68.2456 24.519C68.6054 23.2897 69.1976 22.3452 70.0222 21.6855C70.8468 21.0259 71.9412 20.696 73.3055 20.696C74.5948 20.696 75.6518 21.0259 76.4763 21.6855C77.3009 22.3302 77.9156 23.2747 78.3204 24.519C78.7252 25.7484 78.9276 27.2326 78.9276 28.9717ZM71.0792 28.9717C71.0792 30.1861 71.1466 31.2055 71.2815 32.0301C71.4165 32.8397 71.6414 33.4544 71.9562 33.8741C72.286 34.2789 72.7358 34.4813 73.3055 34.4813C73.8752 34.4813 74.3175 34.2789 74.6323 33.8741C74.9621 33.4693 75.1945 32.8622 75.3294 32.0526C75.4794 31.228 75.5543 30.2011 75.5543 28.9717C75.5543 27.7423 75.4794 26.7229 75.3294 25.9133C75.1945 25.0887 74.9621 24.4741 74.6323 24.0693C74.3175 23.6495 73.8752 23.4396 73.3055 23.4396C72.7358 23.4396 72.286 23.6495 71.9562 24.0693C71.6414 24.4741 71.4165 25.0887 71.2815 25.9133C71.1466 26.7229 71.0792 27.7423 71.0792 28.9717ZM92.7585 20.9434C94.8274 20.9434 96.3341 21.3932 97.2787 22.2927C98.2382 23.1772 98.7179 24.3991 98.7179 25.9583C98.7179 26.6629 98.613 27.3376 98.4031 27.9822C98.1932 28.6119 97.8409 29.1816 97.3461 29.6913C96.8664 30.1861 96.2292 30.5759 95.4346 30.8607C94.64 31.1456 93.658 31.288 92.4887 31.288H91.0269V37H87.6312V20.9434H92.7585ZM92.5786 23.7319H91.0269V28.4994H92.1513C92.796 28.4994 93.3507 28.417 93.8155 28.2521C94.2802 28.0872 94.64 27.8248 94.8949 27.465C95.1498 27.1052 95.2772 26.6404 95.2772 26.0707C95.2772 25.2761 95.0598 24.6914 94.625 24.3166C94.1903 23.9268 93.5081 23.7319 92.5786 23.7319ZM116.325 28.9492C116.325 30.1936 116.167 31.3255 115.852 32.3449C115.553 33.3494 115.088 34.219 114.458 34.9536C113.843 35.6882 113.049 36.2504 112.074 36.6402C111.115 37.03 109.983 37.2249 108.679 37.2249C107.374 37.2249 106.235 37.03 105.26 36.6402C104.301 36.2354 103.506 35.6732 102.877 34.9536C102.262 34.219 101.797 33.3419 101.482 32.3224C101.183 31.303 101.033 30.1711 101.033 28.9267C101.033 27.2626 101.302 25.8158 101.842 24.5865C102.397 23.3571 103.236 22.4051 104.361 21.7305C105.5 21.0408 106.947 20.696 108.701 20.696C110.44 20.696 111.872 21.0408 112.996 21.7305C114.121 22.4051 114.953 23.3646 115.493 24.609C116.047 25.8383 116.325 27.2851 116.325 28.9492ZM104.608 28.9492C104.608 30.0736 104.751 31.0406 105.036 31.8502C105.32 32.6598 105.763 33.2819 106.362 33.7167C106.962 34.1515 107.734 34.3689 108.679 34.3689C109.653 34.3689 110.433 34.1515 111.017 33.7167C111.617 33.2819 112.052 32.6598 112.322 31.8502C112.607 31.0406 112.749 30.0736 112.749 28.9492C112.749 27.2551 112.434 25.9283 111.804 24.9688C111.175 24.0093 110.14 23.5295 108.701 23.5295C107.742 23.5295 106.962 23.7469 106.362 24.1817C105.763 24.6165 105.32 25.2387 105.036 26.0482C104.751 26.8578 104.608 27.8248 104.608 28.9492ZM125.655 37H118.346V35.066L120.303 34.1665V23.7769L118.346 22.8774V20.9434H125.655V22.8774L123.698 23.7769V34.1665L125.655 35.066V37ZM142.626 37H138.308L131.315 24.8564H131.225C131.24 25.2312 131.255 25.6135 131.27 26.0033C131.285 26.3781 131.3 26.7604 131.315 27.1502C131.345 27.525 131.367 27.9073 131.382 28.2971C131.397 28.6719 131.412 29.0542 131.427 29.444V37H128.391V20.9434H132.686L139.658 32.9746H139.725C139.71 32.5998 139.695 32.2325 139.68 31.8727C139.665 31.4979 139.65 31.1306 139.635 30.7708C139.635 30.396 139.628 30.0286 139.613 29.6688C139.598 29.294 139.583 28.9192 139.568 28.5444V20.9434H142.626V37ZM152.869 37H149.473V23.7769H145.111V20.9434H157.232V23.7769H152.869V37Z" fill="black"/>
</g>
<defs>
<filter id="filter0_d_90_2191" x="0.600342" y="107.93" width="186.56" height="32.4021" filterUnits="userSpaceOnUse" color-interpolation-filters="sRGB">
<feFlood flood-opacity="0" result="BackgroundImageFix"/>
<feColorMatrix in="SourceAlpha" type="matrix" values="0 0 0 0 0 0 0 0 0 0 0 0 0 0 0 0 0 0 127 0" result="hardAlpha"/>
<feOffset dy="4"/>
<feGaussianBlur stdDeviation="2"/>
<feComposite in2="hardAlpha" operator="out"/>
<feColorMatrix type="matrix" values="0 0 0 0 0 0 0 0 0 0 0 0 0 0 0 0 0 0 0.25 0"/>
<feBlend mode="normal" in2="BackgroundImageFix" result="effect1_dropShadow_90_2191"/>
<feBlend mode="normal" in="SourceGraphic" in2="effect1_dropShadow_90_2191" result="shape"/>
</filter>
<filter id="filter1_d_90_2191" x="15.7703" y="60.7666" width="158.099" height="28.5125" filterUnits="userSpaceOnUse" color-interpolation-filters="sRGB">
<feFlood flood-opacity="0" result="BackgroundImageFix"/>
<feColorMatrix in="SourceAlpha" type="matrix" values="0 0 0 0 0 0 0 0 0 0 0 0 0 0 0 0 0 0 127 0" result="hardAlpha"/>
<feOffset dy="4"/>
<feGaussianBlur stdDeviation="2"/>
<feComposite in2="hardAlpha" operator="out"/>
<feColorMatrix type="matrix" values="0 0 0 0 0 0 0 0 0 0 0 0 0 0 0 0 0 0 0.25 0"/>
<feBlend mode="normal" in2="BackgroundImageFix" result="effect1_dropShadow_90_2191"/>
<feBlend mode="normal" in="SourceGraphic" in2="effect1_dropShadow_90_2191" result="shape"/>
</filter>
<filter id="filter2_d_90_2191" x="32.2832" y="20.696" width="128.948" height="24.5288" filterUnits="userSpaceOnUse" color-interpolation-filters="sRGB">
<feFlood flood-opacity="0" result="BackgroundImageFix"/>
<feColorMatrix in="SourceAlpha" type="matrix" values="0 0 0 0 0 0 0 0 0 0 0 0 0 0 0 0 0 0 127 0" result="hardAlpha"/>
<feOffset dy="4"/>
<feGaussianBlur stdDeviation="2"/>
<feComposite in2="hardAlpha" operator="out"/>
<feColorMatrix type="matrix" values="0 0 0 0 0 0 0 0 0 0 0 0 0 0 0 0 0 0 0.25 0"/>
<feBlend mode="normal" in2="BackgroundImageFix" result="effect1_dropShadow_90_2191"/>
<feBlend mode="normal" in="SourceGraphic" in2="effect1_dropShadow_90_2191" result="shape"/>
</filter>
</defs>
</svg>
